<svg width="168" height="37" viewBox="0 0 168 37" fill="none" xmlns="http://www.w3.org/2000/svg">
<g clip-path="url(#clip0_1_709)">
<path d="M50.6737 9.99909C52.8959 9.99909 54.8862 10.5674 56.6447 11.6917C58.4032 12.8221 59.8011 14.3726 60.8317 16.3493C61.8623 18.3262 62.3776 20.6179 62.3776 23.2247C62.3776 25.8377 61.8623 28.1355 60.8317 30.1247C59.8011 32.1138 58.4226 33.6767 56.6899 34.8071C54.9636 35.9375 53.0182 36.4997 50.8605 36.4997C49.5915 36.4997 48.3997 36.2897 47.2919 35.8757C46.184 35.4618 45.2048 34.9369 44.3674 34.3006C43.5236 33.6643 42.873 33.0218 42.4157 32.3671C41.9583 31.7123 41.7265 31.1687 41.7265 30.7176L43.2015 30.0938V33.5779C43.2015 34.4056 42.931 35.0974 42.3899 35.6534C41.8488 36.2093 41.1661 36.4873 40.3415 36.4873C39.5171 36.4873 38.8343 36.2155 38.2932 35.678C37.752 35.1344 37.4816 34.4365 37.4816 33.5779V3.58088C37.4816 2.75313 37.752 2.06127 38.2932 1.50532C38.8343 0.949368 39.5171 0.671387 40.3415 0.671387C41.1661 0.671387 41.8488 0.949368 42.3899 1.50532C42.931 2.06127 43.2015 2.75313 43.2015 3.58088V15.7132L42.3899 15.2807C42.3899 14.8668 42.6089 14.3664 43.0534 13.7734C43.4978 13.1866 44.1034 12.5936 44.8635 12.0067C45.6236 11.4199 46.5061 10.9319 47.5044 10.5489C48.5028 10.1906 49.5592 9.99909 50.6737 9.99909ZM49.9586 15.256C48.5609 15.256 47.3433 15.608 46.2935 16.3061C45.2435 17.0042 44.4319 17.9555 43.8457 19.1477C43.2595 20.3399 42.9633 21.705 42.9633 23.2309C42.9633 24.7257 43.2531 26.0909 43.8457 27.314C44.4319 28.5432 45.2499 29.5009 46.2935 30.205C47.3433 30.9031 48.5609 31.2551 49.9586 31.2551C51.3564 31.2551 52.5674 30.9031 53.598 30.205C54.6286 29.507 55.4403 28.5432 56.0265 27.314C56.6126 26.0909 56.9089 24.7257 56.9089 23.2309C56.9089 21.705 56.6126 20.3399 56.0265 19.1477C55.4403 17.9555 54.6286 17.0042 53.598 16.3061C52.5674 15.6019 51.35 15.256 49.9586 15.256Z" fill="#202B47"/>
<path d="M72.485 33.434C72.485 34.2747 72.209 34.9775 71.6572 35.5421C71.1054 36.1068 70.419 36.3891 69.5976 36.3891C68.8085 36.3891 68.1412 36.1068 67.6087 35.5421C67.0697 34.9775 66.8003 34.2747 66.8003 33.434V3.45521C66.8003 2.61444 67.0761 1.91173 67.6279 1.34704C68.1797 0.782348 68.8662 0.5 69.6874 0.5C70.5087 0.5 71.1825 0.782348 71.7021 1.34704C72.2218 1.91173 72.485 2.61444 72.485 3.45521V33.434Z" fill="#202B47"/>
<path d="M89.3542 36.0511C86.6552 36.0511 84.3169 35.4888 82.333 34.3584C80.3491 33.2281 78.8288 31.69 77.766 29.7502C76.7032 27.8105 76.175 25.6114 76.175 23.159C76.175 20.2928 76.7548 17.8528 77.9142 15.8266C79.0737 13.8066 80.5873 12.25 82.4618 11.1689C84.3363 10.0879 86.3139 9.54431 88.4073 9.54431C90.0241 9.54431 91.5571 9.87788 92.9999 10.545C94.4429 11.2122 95.7183 12.1264 96.8326 13.2939C97.9405 14.4552 98.823 15.802 99.4736 17.3278C100.124 18.8536 100.446 20.4781 100.446 22.2016C100.414 22.9676 100.111 23.5853 99.5445 24.0671C98.9711 24.5428 98.3077 24.7837 97.5476 24.7837H79.37L77.94 20.0087H95.4026L94.3526 20.9662V19.6751C94.2884 18.7547 93.9663 17.9269 93.3801 17.1919C92.7939 16.4567 92.066 15.8761 91.19 15.4498C90.3139 15.0174 89.3863 14.8074 88.4073 14.8074C87.454 14.8074 86.5651 14.9371 85.7405 15.1903C84.9161 15.4436 84.201 15.8761 83.602 16.4815C82.9965 17.0867 82.5262 17.896 82.1719 18.9152C81.8241 19.9345 81.6502 21.2255 81.6502 22.7822C81.6502 24.4996 82.0045 25.9574 82.7196 27.1496C83.4345 28.3418 84.3556 29.2499 85.4764 29.8738C86.6037 30.4976 87.8017 30.8066 89.0707 30.8066C90.2431 30.8066 91.177 30.7139 91.8792 30.5224C92.5749 30.331 93.1417 30.1024 93.5669 29.8306C93.9919 29.5588 94.3849 29.3302 94.7328 29.1386C95.306 28.8545 95.8407 28.7063 96.3496 28.7063C97.0452 28.7063 97.625 28.9472 98.0887 29.4229C98.5461 29.8985 98.7779 30.4606 98.7779 31.0969C98.7779 31.9555 98.3335 32.74 97.4446 33.4381C96.62 34.1362 95.4605 34.7539 93.9727 35.2789C92.4782 35.7916 90.9452 36.0511 89.3542 36.0511Z" fill="#202B47"/>
<path d="M20.1751 15.6717C24.5423 15.6717 28.0917 19.0755 28.0917 23.2637V30.8556H19.9369C15.7048 30.8556 12.2587 27.5507 12.2587 23.4923V23.2637C12.2587 19.0755 15.8079 15.6717 20.1751 15.6717ZM20.1751 10.3408C12.7353 10.3408 6.69971 16.1228 6.69971 23.2637V23.4923C6.69971 30.5035 12.6258 36.1866 19.9369 36.1866H31.5121C32.6908 36.1866 33.6441 35.2724 33.6441 34.1418V23.2698C33.6441 16.1289 27.6149 10.3408 20.1751 10.3408Z" fill="#202B47"/>
<path d="M0.360656 8.06864C0.360656 11.009 2.84707 13.3873 5.90675 13.3873C8.97286 13.3873 11.4528 11.0029 11.4528 8.06864V7.97599C11.4528 5.09119 9.01148 2.75 6.00335 2.75H0.354248L0.360656 8.06864Z" fill="#202B47"/>
<path d="M15.703 2.75C14.2279 2.75 13.0363 3.89279 13.0363 5.30738V6.27104C13.0363 7.68563 14.2279 8.82845 15.703 8.82845H16.7658C18.2088 8.82845 19.3747 7.70417 19.3747 6.32663V2.75H15.703Z" fill="#202B47"/>
<path d="M161.537 8.75H118.773C115.821 8.75 113.428 11.1005 113.428 14V30.5C113.428 33.3995 115.821 35.75 118.773 35.75H161.537C164.489 35.75 166.882 33.3995 166.882 30.5V14C166.882 11.1005 164.489 8.75 161.537 8.75Z" stroke="#202B47"/>
<path d="M123.459 27.5H124.98V19.7436H125.099L128.254 27.5H129.492L132.654 19.7436H132.766V27.5H134.287V16.9311H132.363L128.932 25.3613H128.813L125.383 16.9311H123.459V27.5ZM137.903 27.5H144.734V26.0864H139.573V22.7978H144.458V21.4355H139.573V18.3447H144.734V16.9311H137.903V27.5ZM148.066 27.5H149.692V19.8242H149.811L155.337 27.5H156.843V16.9311H155.218V24.6216H155.107L149.573 16.9311H148.066V27.5Z" fill="#202B47"/>
</g>
<defs>
<clipPath id="clip0_1_709">
<rect width="168" height="36" fill="white" transform="translate(0 0.5)"/>
</clipPath>
</defs>
</svg>
