<svg width="44" height="54" viewBox="0 0 44 54" fill="none" xmlns="http://www.w3.org/2000/svg">
<path d="M27.2449 47.1367H16.2053C15.2128 47.1367 14.4866 48.1027 14.8022 49.0393C15.773 51.9195 18.5053 53.9945 21.7253 53.9945C24.945 53.9945 27.6773 51.9195 28.648 49.0393C28.9636 48.1027 28.2374 47.1367 27.2449 47.1367H27.2449Z" fill="#315580"/>
<path d="M25.5069 6.85764H17.9435C17.2637 6.85764 16.7662 5.89188 16.9823 4.95516C17.6475 2.07508 19.5195 0 21.7254 0C23.931 0 25.8029 2.07508 26.4678 4.95516C26.6843 5.89188 26.1868 6.85764 25.5069 6.85764Z" fill="#315580"/>
<path d="M43.4337 42.3056V42.3043C43.4345 41.4385 43.0736 40.6126 42.4401 40.051C40.7998 38.5968 37.7352 34.4187 38.0212 23.614C38.2524 14.8722 35.2614 9.74717 31.6748 6.74252C25.9659 1.95979 17.5468 1.95624 11.8307 6.73402C8.23944 9.73562 5.24029 14.8581 5.45808 23.5999C5.72768 34.4067 2.65545 38.5821 1.01302 40.0339C0.378946 40.5947 0.0172133 41.4195 0.0166637 42.285C0.0153029 43.9249 1.29271 45.2548 2.86917 45.2556L40.5788 45.2716C42.1544 45.2724 43.4326 43.9447 43.4337 42.3056L43.4337 42.3056Z" fill="#315580"/>
<path d="M1.30849e-05 42.3056V42.3043C-0.000529939 41.4385 0.360123 40.6126 0.993923 40.051C2.63418 38.5968 5.69877 34.4187 5.41281 23.614C5.18164 14.8722 8.17263 9.74717 11.7593 6.74252C17.4681 1.95979 25.8869 1.95624 31.6033 6.73402C35.1943 9.73562 38.1937 14.8581 37.9759 23.5999C37.7063 34.4067 40.7786 38.5821 42.421 40.0339C43.0551 40.5947 43.4168 41.4195 43.4174 42.285C43.4187 43.9249 42.1413 45.2548 40.5648 45.2556L2.85524 45.2716C1.27959 45.2724 0.00136737 43.9447 0 42.3056L1.30849e-05 42.3056Z" fill="#31658E"/>
</svg>
