<svg width="113" height="70" viewBox="0 0 113 70" fill="none" xmlns="http://www.w3.org/2000/svg">
<path d="M15.3273 41.4883C13.2701 41.4883 11.4211 41.1562 9.78047 40.4922C8.13985 39.8151 6.74011 38.8385 5.58125 37.5625C4.4224 36.2865 3.53047 34.7435 2.90547 32.9336C2.29349 31.1107 1.9875 29.0664 1.9875 26.8008V26.7812C1.9875 23.7865 2.52787 21.2148 3.6086 19.0664C4.68933 16.9049 6.21927 15.2448 8.19844 14.0859C10.1906 12.9141 12.5344 12.3281 15.2297 12.3281C17.4563 12.3281 19.4094 12.7253 21.0891 13.5195C22.7688 14.3008 24.1359 15.375 25.1906 16.7422C26.2583 18.0964 26.968 19.6393 27.3195 21.3711L27.3977 21.7031H22.3L22.2219 21.4883C21.688 19.9779 20.8221 18.7995 19.6242 17.9531C18.4393 17.1068 16.981 16.6836 15.2492 16.6836C13.5565 16.6836 12.1047 17.0807 10.8938 17.875C9.68282 18.6693 8.75183 19.8216 8.10078 21.332C7.44974 22.8294 7.12422 24.6328 7.12422 26.7422V26.7617C7.12422 28.3763 7.31302 29.8281 7.69063 31.1172C8.06823 32.3932 8.61511 33.4805 9.33125 34.3789C10.0604 35.2643 10.9328 35.9479 11.9484 36.4297C12.9641 36.8984 14.1099 37.1328 15.3859 37.1328C16.8052 37.1328 18.0552 36.8594 19.1359 36.3125C20.2297 35.7656 21.0826 34.9974 21.6945 34.0078C22.3195 33.0182 22.6451 31.8659 22.6711 30.5508L22.6906 30.1211H15.6984V26.1953H27.6125V29.2422C27.6125 31.1432 27.3326 32.849 26.7727 34.3594C26.2258 35.8698 25.4185 37.1589 24.3508 38.2266C23.2961 39.2812 22.007 40.0885 20.4836 40.6484C18.9732 41.2083 17.2544 41.4883 15.3273 41.4883ZM32.5336 41V12.8164H37.5727V36.7617H50.3461V41H32.5336ZM57.2984 31.6836V27.6211H64.3883C66.2112 27.6211 67.6174 27.1589 68.607 26.2344C69.6096 25.2969 70.1109 23.9818 70.1109 22.2891V22.25C70.1109 20.5443 69.6096 19.2292 68.607 18.3047C67.6174 17.3802 66.2112 16.918 64.3883 16.918H57.2984V12.8164H65.6383C67.5393 12.8164 69.206 13.207 70.6383 13.9883C72.0836 14.7695 73.2099 15.8698 74.0172 17.2891C74.8245 18.6953 75.2281 20.3424 75.2281 22.2305V22.2695C75.2281 24.1445 74.8245 25.7917 74.0172 27.2109C73.2099 28.6172 72.0836 29.7174 70.6383 30.5117C69.206 31.293 67.5393 31.6836 65.6383 31.6836H57.2984ZM54.7789 41V12.8164H59.818V41H54.7789ZM79.4656 31.7031V27.4062H92.0633V31.7031H79.4656ZM103.527 41V17.6016H103.41L96.125 22.6016V17.9922L103.488 12.8164H108.469V41H103.527Z" fill="#FF8A00"/>
<path d="M20.2526 66.082C20.0182 66.082 19.8776 65.9355 19.8776 65.6895V57.9551C19.8776 57.6562 20.0768 57.4629 20.3756 57.4629C20.6452 57.4629 20.8034 57.5918 20.9264 57.8789L23.9323 64.9453H23.9674L26.9616 57.8789C27.0846 57.5918 27.2545 57.4629 27.5241 57.4629C27.8229 57.4629 28.0221 57.6562 28.0221 57.9551V65.6895C28.0221 65.9355 27.8815 66.082 27.6471 66.082C27.4127 66.082 27.2721 65.9355 27.2721 65.6895V59.0625H27.237L24.4362 65.625C24.3307 65.8711 24.1842 65.9766 23.9498 65.9766C23.7155 65.9766 23.5631 65.8711 23.4635 65.6367L20.6627 59.0625H20.6276V65.6895C20.6276 65.9355 20.4811 66.082 20.2526 66.082ZM30.9626 66C30.7165 66 30.5641 65.8418 30.5641 65.584V57.9609C30.5641 57.7031 30.7165 57.5449 30.9626 57.5449H35.363C35.5915 57.5449 35.7497 57.6914 35.7497 57.9082C35.7497 58.1191 35.5915 58.2715 35.363 58.2715H31.361V61.3125H35.152C35.3805 61.3125 35.5329 61.459 35.5329 61.6699C35.5329 61.8809 35.3805 62.0273 35.152 62.0273H31.361V65.2734H35.363C35.5915 65.2734 35.7497 65.4258 35.7497 65.6367C35.7497 65.8535 35.5915 66 35.363 66H30.9626ZM38.3913 66C38.1452 66 37.9929 65.8418 37.9929 65.584V57.9609C37.9929 57.7031 38.1452 57.5449 38.3913 57.5449H40.7351C43.2663 57.5449 44.7429 59.0977 44.7429 61.7695C44.7429 64.4473 43.2722 66 40.7351 66H38.3913ZM38.7956 65.2734H40.6882C42.7683 65.2734 43.9284 64.0195 43.9284 61.7754C43.9284 59.5254 42.7683 58.2715 40.6882 58.2715H38.7956V65.2734ZM47.3435 66.082C47.0974 66.082 46.9451 65.9238 46.9451 65.666V57.8789C46.9451 57.6211 47.0974 57.4629 47.3435 57.4629C47.5896 57.4629 47.742 57.6211 47.742 57.8789V65.666C47.742 65.9238 47.5896 66.082 47.3435 66.082ZM53.7117 66.1348C51.409 66.1348 49.9441 64.4297 49.9441 61.752C49.9441 59.1035 51.4148 57.4102 53.7117 57.4102C55.2703 57.4102 56.5594 58.3125 56.9813 59.625C57.0281 59.7539 57.0516 59.8828 57.0516 59.9824C57.0516 60.2051 56.9109 60.3516 56.6883 60.3516C56.4949 60.3516 56.3543 60.2461 56.2664 60.0117C55.9383 58.875 54.907 58.1543 53.7117 58.1543C51.9188 58.1543 50.7645 59.5547 50.7645 61.752C50.7645 63.9785 51.9188 65.3906 53.7176 65.3906C54.9656 65.3906 55.9676 64.7695 56.284 63.6562C56.366 63.457 56.4773 63.3633 56.659 63.3633C56.8758 63.3633 57.0223 63.5156 57.0223 63.7324C57.0223 63.873 56.993 64.0078 56.9227 64.166C56.4656 65.3848 55.2938 66.1348 53.7117 66.1348ZM59.16 66.082C58.9256 66.082 58.7557 65.9355 58.7557 65.7305C58.7557 65.6719 58.7674 65.6016 58.8084 65.4961L61.6795 57.8438C61.7791 57.5859 61.9373 57.4629 62.1952 57.4629C62.4412 57.4629 62.5936 57.5801 62.6932 57.8438L65.5702 65.4961C65.6053 65.5957 65.6229 65.666 65.6229 65.7305C65.6229 65.9355 65.453 66.082 65.2186 66.082C65.0135 66.082 64.9022 65.9883 64.8202 65.7715L63.953 63.4102H60.4198L59.5526 65.7715C59.4764 65.9941 59.3592 66.082 59.16 66.082ZM60.6541 62.7188H63.7186L62.2069 58.5352H62.1717L60.6541 62.7188ZM69.0673 66.082C68.8212 66.082 68.663 65.9238 68.663 65.666V58.2715H66.1962C65.9677 58.2715 65.8095 58.1191 65.8095 57.9082C65.8095 57.6914 65.9677 57.5449 66.1962 57.5449H71.9325C72.1669 57.5449 72.3192 57.6914 72.3192 57.9082C72.3192 58.1191 72.1669 58.2715 71.9325 58.2715H69.4657V65.666C69.4657 65.9238 69.3075 66.082 69.0673 66.082ZM74.6327 66.082C74.3866 66.082 74.2343 65.9238 74.2343 65.666V57.8789C74.2343 57.6211 74.3866 57.4629 74.6327 57.4629C74.8788 57.4629 75.0312 57.6211 75.0312 57.8789V65.666C75.0312 65.9238 74.8788 66.082 74.6327 66.082ZM81.0713 66.1348C78.7158 66.1348 77.2334 64.4531 77.2334 61.7754C77.2334 59.0977 78.7158 57.4102 81.0713 57.4102C83.4267 57.4102 84.915 59.0977 84.915 61.7754C84.915 64.4531 83.4326 66.1348 81.0713 66.1348ZM81.0713 65.3906C82.9228 65.3906 84.0947 63.9902 84.0947 61.7754C84.0947 59.5547 82.9228 58.1543 81.0713 58.1543C79.2197 58.1543 78.0537 59.5547 78.0537 61.7754C78.0537 63.9902 79.2197 65.3906 81.0713 65.3906ZM87.5156 66.082C87.2754 66.082 87.123 65.9238 87.123 65.666V57.9258C87.123 57.6445 87.3047 57.4629 87.5801 57.4629C87.791 57.4629 87.9023 57.5273 88.043 57.7324L92.8711 64.6055H92.9121V57.8789C92.9121 57.6211 93.0645 57.4629 93.3105 57.4629C93.5508 57.4629 93.7031 57.6211 93.7031 57.8789V65.6543C93.7031 65.9238 93.5391 66.082 93.2637 66.082C93.0527 66.082 92.9531 66.0293 92.8125 65.8301L87.9551 58.9336H87.9141V65.666C87.9141 65.9238 87.7617 66.082 87.5156 66.082Z" fill="#202B47"/>
</svg>
