<svg width="104" height="112" viewBox="0 0 104 112" fill="none" xmlns="http://www.w3.org/2000/svg">
<g clip-path="url(#clip0_1_730)">
<path fill-rule="evenodd" clip-rule="evenodd" d="M51.3747 28.315C48.0743 28.315 45.3979 25.6361 45.3979 22.3317C45.3979 19.0272 48.0743 16.3482 51.3747 16.3482C54.6755 16.3482 57.3519 19.0272 57.3519 22.3317C57.3519 25.6361 54.6755 28.315 51.3747 28.315ZM78.2523 15.0918C77.4291 13.7751 76.4446 12.9907 75.0595 12.1907L56.2015 1.2909C53.2228 -0.430259 49.5265 -0.430259 46.5478 1.2909L27.6899 12.1907C26.2023 13.0501 24.2045 14.6412 24.0479 16.6436C23.6751 21.4034 29.8 24.3847 33.8944 26.5655C40.9488 30.3221 45.5091 32.5002 48.9536 36.0306C49.7175 36.8138 50.9263 38.1906 51.3747 39.2718C51.8232 38.1906 53.0319 36.8138 53.7958 36.0306C57.2399 32.5002 61.8005 30.3221 68.8549 26.5655C72.887 24.4181 78.8146 21.6893 78.7019 16.6479C78.6925 16.2547 78.5213 15.5222 78.2523 15.0918Z" fill="url(#paint0_linear_1_730)"/>
<path fill-rule="evenodd" clip-rule="evenodd" d="M69.1187 29.7107C60.7337 34.1691 54.8504 36.2492 52.5644 43.4557C52.2927 44.3113 51.9349 45.2343 51.605 47.0047C51.2763 45.2465 50.9197 44.3265 50.6495 43.4742C48.3635 36.2674 42.4802 34.1872 34.0953 29.7292C25.3958 25.1037 23.5414 22.7869 23.2139 21.8087V42.3639C23.2139 45.8025 25.0592 49.0023 28.0341 50.7223L46.8665 61.6076C47.551 62.0031 48.1652 62.3062 48.8398 62.5205C48.6121 61.7098 48.3426 60.8527 48.0175 59.9406C42.1346 43.429 31.7198 39.3701 31.7198 39.3701C31.7198 39.3701 36.571 39.7593 43.5013 46.9264C46.8606 50.4004 49.4969 54.5575 51.6023 58.8877C51.6023 58.8877 56.2281 50.5109 59.7127 46.9079C66.6426 39.7408 71.4942 39.3516 71.4942 39.3516C71.4942 39.3516 61.079 43.4105 55.1964 59.9221C54.8712 60.8342 54.6015 61.6913 54.3737 62.502C55.0488 62.2881 55.6626 61.9846 56.3475 61.5891L75.1798 50.7039C78.1547 48.9838 80.0001 45.784 80.0001 42.3454V21.7902C79.6722 22.7684 77.8182 25.0852 69.1187 29.7107Z" fill="url(#paint1_linear_1_730)"/>
</g>
<path d="M3.33645 77.9879C3.6243 78.4851 3.94486 79.0935 4.29813 79.8131C4.6514 80.5327 5.01122 81.2916 5.37757 82.0897C5.74393 82.8748 6.10374 83.6794 6.45701 84.5037C6.82336 85.315 7.15701 86.0673 7.45794 86.7608C7.75888 86.0673 8.08598 85.315 8.43925 84.5037C8.79252 83.6794 9.15234 82.8748 9.51869 82.0897C9.88505 81.2916 10.2449 80.5327 10.5981 79.8131C10.9514 79.0935 11.272 78.4851 11.5598 77.9879H13.7972C13.915 78.9823 14.0262 80.0421 14.1308 81.1673C14.2355 82.2794 14.3271 83.4243 14.4056 84.6019C14.4972 85.7664 14.5757 86.9439 14.6411 88.1346C14.7196 89.3122 14.785 90.4636 14.8374 91.5888H12.4037C12.3514 90.0056 12.286 88.3766 12.2075 86.7019C12.1421 85.0271 12.0374 83.4047 11.8935 81.8346C11.7495 82.1355 11.5794 82.4953 11.3832 82.914C11.1869 83.3327 10.9776 83.7907 10.7551 84.2879C10.5327 84.772 10.3037 85.2757 10.0682 85.7991C9.84579 86.3224 9.62337 86.8327 9.40094 87.3299C9.19159 87.814 8.99533 88.272 8.81215 88.7037C8.62897 89.1224 8.47196 89.4823 8.34112 89.7832H6.49626C6.36542 89.4823 6.20841 89.1159 6.02523 88.6841C5.84206 88.2523 5.63925 87.7944 5.41682 87.3103C5.20748 86.8131 4.98505 86.3028 4.74953 85.7794C4.5271 85.2561 4.30467 84.7523 4.08224 84.2682C3.85981 83.7841 3.65047 83.3327 3.45421 82.914C3.25794 82.4823 3.08785 82.1224 2.94393 81.8346C2.8 83.4047 2.68879 85.0271 2.61028 86.7019C2.54486 88.3766 2.48598 90.0056 2.43365 91.5888H0C0.0523365 90.4636 0.111215 89.2991 0.176636 88.0953C0.25514 86.8916 0.333645 85.7009 0.412149 84.5234C0.503738 83.3327 0.601869 82.1813 0.706542 81.0692C0.811215 79.957 0.92243 78.9299 1.04019 77.9879H3.33645Z" fill="black"/>
<path d="M18.6015 86.5056C18.6015 85.6028 18.7323 84.8112 18.994 84.1308C19.2688 83.4505 19.6286 82.8879 20.0734 82.443C20.5183 81.9851 21.0286 81.6449 21.6043 81.4224C22.18 81.1869 22.7688 81.0692 23.3706 81.0692C24.7837 81.0692 25.8828 81.5075 26.6678 82.3841C27.466 83.2608 27.865 84.5692 27.865 86.3094C27.865 86.4402 27.8585 86.5907 27.8454 86.7608C27.8454 86.9178 27.8389 87.0617 27.8258 87.1925H21.0547C21.1202 88.0168 21.408 88.658 21.9183 89.1159C22.4417 89.5608 23.194 89.7832 24.1753 89.7832C24.751 89.7832 25.2744 89.7309 25.7454 89.6262C26.2295 89.5215 26.6089 89.4103 26.8837 89.2925L27.1977 91.2355C27.0669 91.3009 26.8837 91.3729 26.6482 91.4514C26.4258 91.5168 26.1641 91.5757 25.8631 91.628C25.5753 91.6935 25.2613 91.7458 24.9211 91.7851C24.5809 91.8243 24.2342 91.8439 23.8809 91.8439C22.9781 91.8439 22.1931 91.7131 21.5258 91.4514C20.8585 91.1766 20.3089 90.8037 19.8772 90.3327C19.4454 89.8486 19.1248 89.286 18.9155 88.6449C18.7061 87.9907 18.6015 87.2776 18.6015 86.5056ZM25.4903 85.4458C25.4903 85.1187 25.4445 84.8112 25.3529 84.5234C25.2613 84.2224 25.1239 83.9673 24.9407 83.758C24.7706 83.5355 24.5547 83.3654 24.2931 83.2477C24.0445 83.1168 23.7435 83.0514 23.3903 83.0514C23.0239 83.0514 22.7033 83.1234 22.4286 83.2673C22.1538 83.3981 21.9183 83.5748 21.722 83.7972C21.5389 84.0196 21.3949 84.2748 21.2903 84.5626C21.1856 84.8505 21.1136 85.1449 21.0744 85.4458H25.4903Z" fill="black"/>
<path d="M40.7847 79.5187C40.9941 80.2252 41.2165 80.9645 41.452 81.7365C41.6875 82.4953 41.9296 83.2608 42.1782 84.0327C42.4399 84.7916 42.695 85.5439 42.9436 86.2897C43.2053 87.0224 43.4539 87.7159 43.6894 88.3701C43.8856 87.6636 44.0754 86.8981 44.2585 86.0738C44.4417 85.2365 44.6249 84.3729 44.8081 83.4832C44.9913 82.5804 45.1679 81.6645 45.338 80.7355C45.5212 79.8066 45.6913 78.8907 45.8483 77.9879H48.3997C47.9417 80.4477 47.4314 82.8159 46.8688 85.0925C46.3062 87.3561 45.6782 89.5215 44.9847 91.5888H42.6296C41.609 88.9458 40.6212 86.0608 39.666 82.9337C39.1819 84.5168 38.6913 86.0215 38.1941 87.4477C37.6969 88.8738 37.1997 90.2542 36.7025 91.5888H34.3473C33.6408 89.5215 33.0062 87.3561 32.4436 85.0925C31.8941 82.8159 31.3903 80.4477 30.9324 77.9879H33.5819C33.7389 78.8776 33.9025 79.7869 34.0726 80.7159C34.2557 81.6449 34.4389 82.5608 34.6221 83.4636C34.8184 84.3533 35.0146 85.2168 35.2109 86.0542C35.4071 86.8916 35.6034 87.6636 35.7997 88.3701C36.0483 87.7028 36.2969 87.0028 36.5455 86.2701C36.8071 85.5243 37.0623 84.772 37.3109 84.0131C37.5595 83.2411 37.795 82.4757 38.0174 81.7168C38.2529 80.958 38.4688 80.2252 38.6651 79.5187H40.7847Z" fill="black"/>
<path d="M51.0084 86.5056C51.0084 85.6028 51.1392 84.8112 51.4009 84.1308C51.6757 83.4505 52.0355 82.8879 52.4804 82.443C52.9252 81.9851 53.4355 81.6449 54.0112 81.4224C54.5869 81.1869 55.1757 81.0692 55.7776 81.0692C57.1906 81.0692 58.2897 81.5075 59.0748 82.3841C59.8729 83.2608 60.272 84.5692 60.272 86.3094C60.272 86.4402 60.2654 86.5907 60.2523 86.7608C60.2523 86.9178 60.2458 87.0617 60.2327 87.1925H53.4617C53.5271 88.0168 53.8149 88.658 54.3252 89.1159C54.8486 89.5608 55.6009 89.7832 56.5822 89.7832C57.1579 89.7832 57.6813 89.7309 58.1523 89.6262C58.6364 89.5215 59.0159 89.4103 59.2907 89.2925L59.6047 91.2355C59.4738 91.3009 59.2906 91.3729 59.0551 91.4514C58.8327 91.5168 58.571 91.5757 58.2701 91.628C57.9822 91.6935 57.6682 91.7458 57.328 91.7851C56.9878 91.8243 56.6411 91.8439 56.2878 91.8439C55.385 91.8439 54.6 91.7131 53.9327 91.4514C53.2654 91.1766 52.7159 90.8037 52.2841 90.3327C51.8523 89.8486 51.5318 89.286 51.3224 88.6449C51.1131 87.9907 51.0084 87.2776 51.0084 86.5056ZM57.8972 85.4458C57.8972 85.1187 57.8514 84.8112 57.7598 84.5234C57.6682 84.2224 57.5308 83.9673 57.3477 83.758C57.1776 83.5355 56.9617 83.3654 56.7 83.2477C56.4514 83.1168 56.1505 83.0514 55.7972 83.0514C55.4308 83.0514 55.1103 83.1234 54.8355 83.2673C54.5607 83.3981 54.3252 83.5748 54.129 83.7972C53.9458 84.0196 53.8019 84.2748 53.6972 84.5626C53.5925 84.8505 53.5206 85.1449 53.4813 85.4458H57.8972Z" fill="black"/>
<path d="M66.7543 91.5888H64.3795V81.3243H66.7543V91.5888ZM67.0094 78.3215C67.0094 78.7664 66.8655 79.1196 66.5776 79.3813C66.2898 79.643 65.9496 79.7738 65.5571 79.7738C65.1515 79.7738 64.8047 79.643 64.5169 79.3813C64.229 79.1196 64.0851 78.7664 64.0851 78.3215C64.0851 77.8636 64.229 77.5037 64.5169 77.2421C64.8047 76.9804 65.1515 76.8495 65.5571 76.8495C65.9496 76.8495 66.2898 76.9804 66.5776 77.2421C66.8655 77.5037 67.0094 77.8636 67.0094 78.3215Z" fill="black"/>
<path d="M73.2185 86.1916C73.2185 87.1991 73.4344 87.9383 73.8661 88.4094C74.311 88.8673 74.8802 89.0963 75.5736 89.0963C75.9531 89.0963 76.3063 89.0439 76.6334 88.9393C76.9736 88.8346 77.2484 88.7103 77.4577 88.5664V83.2477C77.2876 83.2084 77.0783 83.1757 76.8297 83.1495C76.5811 83.1103 76.2671 83.0907 75.8876 83.0907C75.0241 83.0907 74.3633 83.3785 73.9054 83.9542C73.4475 84.5168 73.2185 85.2626 73.2185 86.1916ZM79.8325 90.5486C79.8325 92.1841 79.4138 93.3813 78.5764 94.1402C77.7521 94.8991 76.483 95.2785 74.769 95.2785C74.1409 95.2785 73.526 95.2262 72.9241 95.1215C72.3353 95.0168 71.7989 94.8794 71.3148 94.7094L71.7465 92.6879C72.1521 92.858 72.6101 92.9953 73.1204 93.1C73.6437 93.2047 74.2063 93.257 74.8082 93.257C75.7634 93.257 76.4437 93.0608 76.8493 92.6682C77.2549 92.2757 77.4577 91.6935 77.4577 90.9215V90.529C77.2222 90.6467 76.9082 90.7645 76.5157 90.8823C76.1362 91 75.6979 91.0589 75.2007 91.0589C74.5465 91.0589 73.9447 90.9542 73.3951 90.7449C72.8587 90.5355 72.3942 90.228 72.0017 89.8224C71.6222 89.4168 71.3213 88.9131 71.0989 88.3112C70.8895 87.6963 70.7848 86.9897 70.7848 86.1916C70.7848 85.4458 70.8961 84.7589 71.1185 84.1308C71.354 83.5028 71.6876 82.9664 72.1194 82.5215C72.5643 82.0766 73.1007 81.7299 73.7288 81.4813C74.3568 81.2327 75.0699 81.1084 75.868 81.1084C76.64 81.1084 77.3727 81.1673 78.0662 81.2851C78.7596 81.4028 79.3484 81.5271 79.8325 81.658V90.5486Z" fill="black"/>
<path d="M84.4238 91.5888V76.7514L86.7986 76.3589V81.4421C87.0602 81.3505 87.3612 81.272 87.7014 81.2065C88.0546 81.1411 88.4014 81.1084 88.7416 81.1084C89.5659 81.1084 90.2462 81.2262 90.7827 81.4617C91.3322 81.6841 91.7705 82.0047 92.0976 82.4234C92.4247 82.829 92.6537 83.3196 92.7846 83.8953C92.9285 84.471 93.0004 85.1122 93.0004 85.8187V91.5888H90.6257V86.1916C90.6257 85.6421 90.5864 85.1776 90.5079 84.7981C90.4425 84.4056 90.3247 84.0916 90.1546 83.8561C89.9976 83.6075 89.7817 83.4308 89.507 83.3262C89.2322 83.2084 88.892 83.1495 88.4864 83.1495C88.1724 83.1495 87.8518 83.1823 87.5247 83.2477C87.1976 83.3131 86.9556 83.372 86.7986 83.4243V91.5888H84.4238Z" fill="black"/>
<path d="M97.2992 78.6159L99.674 78.2234V81.3243H103.324V83.3066H99.674V87.4869C99.674 88.3112 99.8048 88.9 100.066 89.2533C100.328 89.6066 100.773 89.7832 101.401 89.7832C101.833 89.7832 102.212 89.7374 102.539 89.6458C102.88 89.5542 103.148 89.4692 103.344 89.3907L103.737 91.2748C103.462 91.3925 103.102 91.5103 102.657 91.628C102.212 91.7589 101.689 91.8243 101.087 91.8243C100.354 91.8243 99.7394 91.7262 99.2422 91.5299C98.7581 91.3337 98.3721 91.0523 98.0842 90.686C97.7964 90.3066 97.5936 89.8551 97.4758 89.3318C97.3581 88.7953 97.2992 88.1869 97.2992 87.5065V78.6159Z" fill="black"/>
<path d="M25.3515 109.579V105.85C24.7322 104.9 24.1608 103.984 23.6375 103.103C23.1228 102.213 22.6431 101.35 22.1982 100.512H23.2319C23.5982 101.28 23.9995 102.06 24.4356 102.854C24.8805 103.639 25.3428 104.389 25.8225 105.105C26.2848 104.389 26.7384 103.639 27.1833 102.854C27.6281 102.06 28.0381 101.28 28.4132 100.512H29.3814C28.9191 101.341 28.4306 102.204 27.916 103.103C27.4013 103.993 26.8431 104.9 26.2412 105.824V109.579H25.3515Z" fill="black"/>
<path d="M36.9604 106.204C36.9604 106.736 36.8819 107.22 36.7249 107.656C36.5766 108.092 36.3629 108.463 36.0837 108.768C35.8133 109.074 35.4906 109.313 35.1155 109.488C34.7404 109.654 34.3261 109.736 33.8725 109.736C33.4189 109.736 33.0046 109.654 32.6295 109.488C32.2545 109.313 31.9273 109.074 31.6482 108.768C31.3778 108.463 31.1641 108.092 31.0071 107.656C30.8588 107.22 30.7847 106.736 30.7847 106.204C30.7847 105.672 30.8588 105.188 31.0071 104.751C31.1641 104.315 31.3778 103.945 31.6482 103.639C31.9273 103.325 32.2545 103.085 32.6295 102.92C33.0046 102.745 33.4189 102.658 33.8725 102.658C34.3261 102.658 34.7404 102.745 35.1155 102.92C35.4906 103.085 35.8133 103.325 36.0837 103.639C36.3629 103.945 36.5766 104.315 36.7249 104.751C36.8819 105.188 36.9604 105.672 36.9604 106.204ZM36.0576 106.204C36.0576 105.358 35.8613 104.686 35.4688 104.189C35.0763 103.683 34.5442 103.43 33.8725 103.43C33.2009 103.43 32.6688 103.683 32.2763 104.189C31.8837 104.686 31.6875 105.358 31.6875 106.204C31.6875 107.05 31.8837 107.722 32.2763 108.219C32.6688 108.716 33.2009 108.964 33.8725 108.964C34.5442 108.964 35.0763 108.716 35.4688 108.219C35.8613 107.722 36.0576 107.05 36.0576 106.204Z" fill="black"/>
<path d="M45.0468 109.344C44.7938 109.414 44.4536 109.492 44.0262 109.579C43.5988 109.667 43.0754 109.71 42.4561 109.71C41.9502 109.71 41.5271 109.636 41.1869 109.488C40.8468 109.34 40.572 109.13 40.3626 108.86C40.1533 108.589 40.0007 108.262 39.9047 107.879C39.8175 107.495 39.7739 107.072 39.7739 106.609V102.815H40.6243V106.335C40.6243 106.814 40.6592 107.22 40.729 107.551C40.7988 107.883 40.9122 108.153 41.0692 108.363C41.2262 108.563 41.4268 108.712 41.6711 108.807C41.924 108.895 42.2293 108.938 42.5869 108.938C42.9882 108.938 43.3371 108.917 43.6337 108.873C43.9302 108.829 44.1178 108.79 44.1963 108.755V102.815H45.0468V109.344Z" fill="black"/>
<path d="M50.6512 102.684C50.9303 102.684 51.192 102.706 51.4362 102.75C51.6892 102.793 51.8636 102.837 51.9596 102.88L51.7895 103.613C51.7197 103.578 51.5758 103.543 51.3577 103.508C51.1484 103.465 50.8692 103.443 50.5203 103.443C50.154 103.443 49.8574 103.469 49.6306 103.522C49.4125 103.574 49.2686 103.617 49.1988 103.652V109.579H48.3484V103.129C48.5664 103.033 48.8674 102.937 49.2512 102.841C49.635 102.736 50.1016 102.684 50.6512 102.684Z" fill="black"/>
<path d="M60.4454 108.964C60.7769 108.964 61.0647 108.956 61.309 108.938C61.5619 108.912 61.7757 108.882 61.9501 108.847V106.465C61.8542 106.422 61.7015 106.378 61.4922 106.335C61.2828 106.282 60.995 106.256 60.6286 106.256C60.4193 106.256 60.2012 106.274 59.9744 106.308C59.7476 106.335 59.5383 106.4 59.3464 106.505C59.1545 106.601 58.9975 106.736 58.8753 106.91C58.7532 107.085 58.6922 107.316 58.6922 107.604C58.6922 107.857 58.7314 108.07 58.8099 108.245C58.8971 108.419 59.0149 108.559 59.1632 108.664C59.3202 108.768 59.5034 108.847 59.7127 108.899C59.9308 108.943 60.175 108.964 60.4454 108.964ZM60.3669 102.658C60.8118 102.658 61.1869 102.723 61.4922 102.854C61.8062 102.976 62.0591 103.151 62.251 103.378C62.4429 103.596 62.5825 103.857 62.6697 104.163C62.757 104.468 62.8006 104.799 62.8006 105.157V109.422C62.7133 109.449 62.5869 109.479 62.4211 109.514C62.2554 109.54 62.0635 109.571 61.8454 109.606C61.6274 109.641 61.3831 109.667 61.1127 109.684C60.851 109.71 60.5806 109.723 60.3015 109.723C59.9439 109.723 59.6124 109.684 59.3071 109.606C59.0105 109.527 58.7489 109.405 58.5221 109.239C58.304 109.065 58.1295 108.847 57.9987 108.585C57.8766 108.315 57.8155 107.988 57.8155 107.604C57.8155 107.237 57.8853 106.923 58.0249 106.662C58.1644 106.4 58.3607 106.186 58.6137 106.021C58.8666 105.846 59.1675 105.72 59.5165 105.641C59.8654 105.563 60.2448 105.523 60.6548 105.523C60.7769 105.523 60.9034 105.532 61.0342 105.55C61.1738 105.558 61.3046 105.576 61.4267 105.602C61.5576 105.619 61.6666 105.641 61.7538 105.667C61.8498 105.685 61.9152 105.702 61.9501 105.72V105.301C61.9501 105.065 61.9327 104.839 61.8978 104.621C61.8629 104.394 61.7844 104.193 61.6623 104.019C61.5489 103.836 61.3831 103.692 61.1651 103.587C60.9557 103.474 60.6766 103.417 60.3277 103.417C59.8305 103.417 59.4598 103.452 59.2155 103.522C58.9713 103.591 58.7925 103.648 58.6791 103.692L58.5613 102.946C58.7096 102.876 58.9364 102.811 59.2417 102.75C59.5557 102.688 59.9308 102.658 60.3669 102.658Z" fill="black"/>
<path d="M66.867 108.363C66.9455 108.424 67.0414 108.489 67.1548 108.559C67.2769 108.629 67.4165 108.694 67.5735 108.755C67.7305 108.816 67.9006 108.869 68.0838 108.912C68.267 108.947 68.4589 108.964 68.6595 108.964C69.0782 108.964 69.4271 108.895 69.7062 108.755C69.9941 108.607 70.2252 108.411 70.3997 108.166C70.5741 107.913 70.7006 107.621 70.7791 107.29C70.8576 106.95 70.8969 106.592 70.8969 106.217C70.8969 105.327 70.6744 104.647 70.2296 104.176C69.7847 103.696 69.1959 103.456 68.4632 103.456C68.0445 103.456 67.7044 103.478 67.4427 103.522C67.1897 103.556 66.9978 103.596 66.867 103.639V108.363ZM66.867 112H66.0165V103.05C66.2695 102.963 66.5922 102.88 66.9847 102.802C67.3773 102.723 67.8745 102.684 68.4763 102.684C68.9735 102.684 69.4227 102.767 69.824 102.933C70.2339 103.09 70.5829 103.321 70.8707 103.626C71.1673 103.931 71.3941 104.302 71.5511 104.738C71.7168 105.174 71.7997 105.667 71.7997 106.217C71.7997 106.731 71.7299 107.207 71.5903 107.643C71.4595 108.07 71.2632 108.441 71.0015 108.755C70.7399 109.06 70.4171 109.3 70.0333 109.475C69.6582 109.649 69.2265 109.736 68.738 109.736C68.2931 109.736 67.905 109.675 67.5735 109.553C67.2508 109.422 67.0153 109.3 66.867 109.187V112Z" fill="black"/>
<path d="M75.5418 108.363C75.6203 108.424 75.7163 108.489 75.8297 108.559C75.9518 108.629 76.0914 108.694 76.2484 108.755C76.4054 108.816 76.5755 108.869 76.7587 108.912C76.9418 108.947 77.1337 108.964 77.3344 108.964C77.7531 108.964 78.102 108.895 78.3811 108.755C78.6689 108.607 78.9001 108.411 79.0745 108.166C79.249 107.913 79.3755 107.621 79.454 107.29C79.5325 106.95 79.5717 106.592 79.5717 106.217C79.5717 105.327 79.3493 104.647 78.9045 104.176C78.4596 103.696 77.8708 103.456 77.1381 103.456C76.7194 103.456 76.3792 103.478 76.1175 103.522C75.8646 103.556 75.6727 103.596 75.5418 103.639V108.363ZM75.5418 112H74.6914V103.05C74.9443 102.963 75.2671 102.88 75.6596 102.802C76.0521 102.723 76.5493 102.684 77.1512 102.684C77.6484 102.684 78.0976 102.767 78.4988 102.933C78.9088 103.09 79.2577 103.321 79.5456 103.626C79.8421 103.931 80.0689 104.302 80.2259 104.738C80.3917 105.174 80.4745 105.667 80.4745 106.217C80.4745 106.731 80.4048 107.207 80.2652 107.643C80.1344 108.07 79.9381 108.441 79.6764 108.755C79.4147 109.06 79.092 109.3 78.7082 109.475C78.3331 109.649 77.9013 109.736 77.4129 109.736C76.968 109.736 76.5798 109.675 76.2484 109.553C75.9256 109.422 75.6901 109.3 75.5418 109.187V112Z" fill="black"/>
<defs>
<linearGradient id="paint0_linear_1_730" x1="24.0313" y1="19.6358" x2="78.7031" y2="19.6358" gradientUnits="userSpaceOnUse">
<stop stop-color="#2A87D8"/>
<stop offset="1" stop-color="#26DFF4"/>
</linearGradient>
<linearGradient id="paint1_linear_1_730" x1="58.2592" y1="12.782" x2="40.0786" y2="67.5188" gradientUnits="userSpaceOnUse">
<stop stop-color="#38B549"/>
<stop offset="1" stop-color="#ACDF23"/>
</linearGradient>
<clipPath id="clip0_1_730">
<rect width="56.8341" height="62.5584" fill="white" transform="translate(21.9872)"/>
</clipPath>
</defs>
</svg>
